<svg xmlns="http://www.w3.org/2000/svg" xmlns:xlink="http://www.w3.org/1999/xlink" width="150" height="52" viewBox="0 0 150 52"><defs><style>.a{fill:#f0b90b;}.b{font-size:14px;font-family:Montserrat-Regular, Montserrat;}.c{fill:none;stroke:rgba(0,0,0,0.42);stroke-linecap:round;stroke-width:1.5px;}.d{filter:url(#a);}</style><filter id="a" x="0" y="0" width="150" height="52" filterUnits="userSpaceOnUse"><feOffset dy="3" input="SourceAlpha"/><feGaussianBlur stdDeviation="3" result="b"/><feFlood flood-opacity="0.161"/><feComposite operator="in" in2="b"/><feComposite in="SourceGraphic"/></filter></defs><g transform="translate(-399 40) rotate(-90)"><g class="d" transform="matrix(0, 1, -1, 0, 40, 399)"><path class="a" d="M-5768-3038h-12v-132h12a21.864,21.864,0,0,1,8.563,1.729,21.928,21.928,0,0,1,6.993,4.715,21.933,21.933,0,0,1,4.715,6.993A21.858,21.858,0,0,1-5746-3148v88a21.855,21.855,0,0,1-1.729,8.563,21.92,21.92,0,0,1-4.715,6.992,21.928,21.928,0,0,1-6.993,4.715A21.864,21.864,0,0,1-5768-3038Z" transform="translate(3179 -5740) rotate(-90)"/></g><text class="b" transform="translate(10 443) rotate(90)"><tspan x="0" y="0">Legenda</tspan></text><line class="c" y2="26" transform="translate(27.5 461.5)"/></g></svg>