<svg xmlns="http://www.w3.org/2000/svg" xmlns:xlink="http://www.w3.org/1999/xlink" width="983" height="1080" viewBox="0 0 983 1080"><defs><clipPath id="a"><rect width="983" height="1080" transform="translate(937)" fill="#fff" stroke="#707070" stroke-width="1"/></clipPath><clipPath id="b"><rect width="1642" height="1095" transform="translate(0 0)" fill="none"/></clipPath></defs><g transform="translate(-937)" clip-path="url(#a)"><g transform="translate(885.5)" opacity="0.618"><g transform="translate(0.5 0)"><g clip-path="url(#b)"><g transform="translate(-71.433 -125.522)"><path d="M463.9,353.966c-1.836-7.572-7.921-13.329-14.161-17.994s-13.077-8.865-17.642-15.18c-4.952-6.852-6.683-15.431-8.7-23.643s-4.674-16.744-10.858-22.511-16.932-7.452-22.859-1.424c-4.773,4.856-4.808,12.5-4.541,19.3.324,8.218.708,16.687,4.168,24.149,2.81,6.061,7.469,11.042,12.047,15.907l23.328,24.791,5.794,6.744c7.94,8,12.68,9.143,23.179,7.842C461.393,370.99,465.739,361.54,463.9,353.966Z" transform="translate(529.217 446.251)" fill="none" stroke="#fff" stroke-miterlimit="10" stroke-width="2"/><path d="M429.642,324.7c-.837-3.943-3.608-6.937-6.449-9.366s-5.956-4.613-8.035-7.9c-2.256-3.566-3.045-8.03-3.962-12.3s-2.129-8.713-4.944-11.714-7.712-3.877-10.411-.74c-2.173,2.528-2.19,6.5-2.068,10.043.147,4.278.322,8.685,1.9,12.569a32.619,32.619,0,0,0,5.487,8.278l10.626,12.9,2.637,3.509c3.616,4.162,5.776,4.758,10.556,4.081C428.5,333.553,430.477,328.636,429.642,324.7Z" transform="translate(539.547 459.672)" fill="none" stroke="#fff" stroke-miterlimit="10" stroke-width="2"/><path d="M557.176,410.568c-9.537-10.573-23.562-15.655-35.52-23.385-18.608-12.03-32.585-31.408-36.965-53.128-1.987-9.846-2.046-19.992-3.853-29.871-4.245-23.232-19.409-45.087-41.368-53.779s-50.11-1.693-62.692,18.292c-5.728,9.1-8.021,19.952-8.922,30.664C363.3,353.6,395.412,409.05,444.72,432.091l-3.476-2.434c18.822,11.721,44.089-.832,65.338,5.5,8.687,2.593,16.124,8.2,24.34,12.032s18.386,5.715,26.04.852C568.978,440.41,566.711,421.139,557.176,410.568Z" transform="translate(508.232 419.237)" fill="none" stroke="#fff" stroke-miterlimit="10" stroke-width="2"/><path d="M731.59,462.432c1.146,7.708,6.687,13.988,12.483,19.2s12.222,10.006,16.2,16.706c4.315,7.272,5.268,15.97,6.534,24.331s3.148,17.1,8.786,23.4,16.192,8.948,22.638,3.476c5.189-4.4,5.914-12.012,6.26-18.813.418-8.214.8-16.682-1.976-24.425-2.254-6.291-6.442-11.671-10.564-16.93-9.092-11.6-11.909-15.193-21-26.791l-5.163-7.237c-7.187-8.683-11.8-10.249-22.377-9.9C735.623,445.7,730.445,454.724,731.59,462.432Z" transform="translate(941.548 655.732)" fill="none" stroke="#fff" stroke-miterlimit="10" stroke-width="2"/><path d="M741.766,466.225c.475,4,2.966,7.233,5.579,9.907s5.515,5.13,7.29,8.591c1.925,3.754,2.309,8.271,2.837,12.61s1.336,8.871,3.868,12.113,7.331,4.558,10.3,1.676c2.394-2.322,2.769-6.28,2.966-9.817.239-4.273.462-8.676-.758-12.687a32.618,32.618,0,0,0-4.72-8.738c-4.076-5.978-5.34-7.829-9.419-13.806l-2.311-3.733c-3.227-4.473-5.323-5.259-10.144-5.016C743.7,457.507,741.288,462.225,741.766,466.225Z" transform="translate(953.778 669.881)" fill="none" stroke="#fff" stroke-miterlimit="10" stroke-width="2"/><path d="M703.22,458.129c8.547,11.388,22.057,17.714,33.268,26.489,17.449,13.657,29.623,34.216,32.031,56.243,1.091,9.984.236,20.095,1.146,30.1,2.133,23.518,15.269,46.651,36.354,57.286s49.753,6.2,64.085-12.569c6.523-8.543,9.787-19.149,11.649-29.735,9.425-53.6-17.561-111.726-64.6-139.115l3.244,2.738c-17.69-13.37-43.983-3.143-64.575-11.37-8.42-3.364-15.32-9.616-23.157-14.174s-17.8-7.349-25.856-3.2C694.157,427.343,694.676,446.741,703.22,458.129Z" transform="translate(900.589 624.055)" fill="none" stroke="#fff" stroke-miterlimit="10" stroke-width="2"/><path d="M667.443,473.651c15.442,20.577,39.857,32.006,60.116,47.863,31.531,24.679,53.529,61.831,57.877,101.635,1.971,18.04.43,36.308,2.07,54.381,3.857,42.5,38.792,60.372,76.892,79.589s89.908,11.206,115.805-22.712c11.786-15.438,17.683-34.6,21.045-53.731,17.035-96.864-31.73-201.892-116.72-251.385l5.859,4.948c-31.965-24.16-79.479-5.682-116.688-20.548-15.215-6.076-27.685-17.374-41.848-25.613S699.7,374.8,685.131,382.3C662.261,394.089,652,453.072,667.443,473.651Z" transform="translate(856.613 576.251)" fill="none" stroke="#fff" stroke-miterlimit="10" stroke-width="2"/><path d="M633.544,444.444c-11.081-8.558-24.191-14.091-35.748-22a104.066,104.066,0,0,1-31.741-34.6c-15.217-26.951-21.037-63.463-49.249-76.187-8.718-3.932-19.124-5.2-25.685-12.161-8.777-9.311-6.633-24.04-9.419-36.527-3.754-16.831-17.293-30.25-32.9-37.59S415.66,216,398.432,215.228c-5.831-.261-12.023-.3-17.044,2.679-4.466,2.648-7.331,7.305-9.625,11.962-20.134,40.886-8.374,89.555-12.595,134.934-1.376,14.766-4.488,29.658-2.074,44.292,2.14,12.972,8.481,24.813,14.731,36.383q10.6,19.628,21.2,39.261c59.842,55,119.717,19.893,183.684,28.077,15.464,1.978,31.465,3.776,46.411-.664s28.666-16.785,29.755-32.337C653.852,465.849,644.628,453,633.544,444.444Z" transform="translate(494.873 381.6)" fill="none" stroke="#fff" stroke-miterlimit="10" stroke-width="2"/><path d="M737.535,252.712c-11.081-8.556-24.191-14.089-35.747-21.994a104.087,104.087,0,0,1-31.741-34.6c-15.217-26.951-21.035-63.465-49.249-76.187-8.718-3.932-19.124-5.2-25.685-12.163-8.777-9.309-6.632-24.038-9.419-36.527C581.939,54.414,568.4,41,552.8,33.657s-33.145-9.39-50.373-10.159c-5.831-.261-12.023-.3-17.044,2.677-4.466,2.648-7.331,7.305-9.625,11.964-20.134,40.886-8.374,89.555-12.595,134.932-1.373,14.768-4.488,29.66-2.074,44.292,2.14,12.974,8.484,24.815,14.731,36.383q10.6,19.632,21.2,39.263c59.842,55,119.719,19.891,183.684,28.077,15.464,1.978,31.465,3.776,46.41-.666s28.666-16.783,29.755-32.335C757.845,274.117,748.619,261.27,737.535,252.712Z" transform="translate(618.665 153.362)" fill="none" stroke="#fff" stroke-miterlimit="10" stroke-width="2"/><path d="M784.476,255.435l-.055-.057c-6.753-7.049-16.735-9.677-25.834-13.215-30.044-11.681-51.451-35.117-64.613-63.945-11.318-24.787-16.343-56.077-43.94-68.523-9.828-4.433-21.562-5.866-28.959-13.712-9.894-10.5-7.476-27.1-10.617-41.182-4.234-18.973-36.9-20.323-54.493-28.6S518.595,15.617,499.174,14.75c-6.576-.294-13.557-.337-19.217,3.018-5.036,2.986-8.264,8.236-10.849,13.486-22.7,46.1-9.441,100.965-14.2,152.124-1.551,16.647-5.06,33.437-2.339,49.935,2.412,14.625,9.563,27.976,16.608,41.018q11.953,22.132,23.9,44.264c67.467,62.006,134.971,22.428,207.084,31.654,17.433,2.23,35.472,4.258,52.318-.749,29.264-8.7,37.607-39.327,40.091-66.672C793.461,273.05,791.244,262.54,784.476,255.435Z" transform="translate(608.392 142.931)" fill="none" stroke="#fff" stroke-miterlimit="10" stroke-width="2"/><path d="M658.327,201.01c-7.259-5.605-15.845-9.228-23.415-14.406a68.161,68.161,0,0,1-20.789-22.66c-9.966-17.65-13.778-41.567-32.256-49.9-5.71-2.576-12.527-3.408-16.824-7.967-5.748-6.1-4.344-15.745-6.168-23.926-2.46-11.022-11.327-19.81-21.547-24.618s-21.711-6.151-32.994-6.654c-3.82-.171-7.875-.195-11.165,1.755-2.924,1.735-4.8,4.784-6.3,7.835-13.188,26.78-5.485,58.657-8.251,88.379-.9,9.671-2.94,19.425-1.358,29.01,1.4,8.5,5.557,16.253,9.649,23.83q6.943,12.86,13.887,25.715c39.2,36.023,78.412,13.031,120.308,18.391,10.131,1.295,20.61,2.473,30.4-.436s18.776-10.992,19.488-21.179C671.628,215.029,665.586,206.616,658.327,201.01Z" transform="translate(638.281 186.003)" fill="none" stroke="#fff" stroke-miterlimit="10" stroke-width="2"/><path d="M598.893,161.442c-4.528-3.5-9.883-5.756-14.6-8.985a42.486,42.486,0,0,1-12.967-14.133c-6.217-11.011-8.593-25.926-20.119-31.124-3.562-1.608-7.813-2.127-10.494-4.97-3.586-3.8-2.71-9.82-3.846-14.921-1.535-6.876-7.066-12.358-13.44-15.357s-13.541-3.835-20.579-4.149c-2.381-.107-4.911-.123-6.963,1.093a11.1,11.1,0,0,0-3.932,4.887c-8.225,16.7-3.419,36.586-5.145,55.124-.561,6.032-1.833,12.115-.846,18.1.874,5.3,3.465,10.135,6.017,14.862l8.661,16.04c24.447,22.467,48.908,8.126,75.039,11.469,6.319.808,12.855,1.544,18.96-.272s11.712-6.856,12.155-13.21C607.19,170.186,603.42,164.938,598.893,161.442Z" transform="translate(648.898 206.182)" fill="none" stroke="#fff" stroke-miterlimit="10" stroke-width="2"/><path d="M564.331,140.226c-2.8-2.164-6.116-3.562-9.038-5.561a26.284,26.284,0,0,1-8.021-8.744c-3.846-6.81-5.318-16.04-12.448-19.256-2.2-.994-4.834-1.314-6.492-3.073-2.219-2.355-1.676-6.076-2.381-9.233-.948-4.256-4.37-7.647-8.315-9.5s-8.378-2.372-12.733-2.567a7.7,7.7,0,0,0-4.309.677,6.869,6.869,0,0,0-2.431,3.023c-5.088,10.334-2.116,22.636-3.183,34.107-.348,3.732-1.135,7.5-.526,11.2.541,3.279,2.144,6.271,3.724,9.2q2.681,4.961,5.36,9.923c15.125,13.9,30.258,5.029,46.426,7.1,3.91.5,7.953.955,11.732-.166s7.246-4.243,7.52-8.175C569.463,145.634,567.131,142.388,564.331,140.226Z" transform="translate(659.181 223.446)" fill="none" stroke="#fff" stroke-miterlimit="10" stroke-width="2"/><path d="M709.039,442.66c-13.992-16.978-36.933-23.632-53.667-37.914a74.279,74.279,0,0,1-25.021-45.289c-2.381-16.268.738-32.806.541-49.247s-4.725-34.374-18.132-43.889c-21.615-15.342-52.209-.968-77.808-7.837-22.883-6.14-37.824-27.987-58.6-39.384-15.762-8.648-34.131-10.884-51.989-12.963-13.545-1.577-27.555-3.115-40.584.911-16.181,5-28.911,18.264-36.249,33.524s-9.824,32.416-10.558,49.335c-1.354,31.273,2.955,62.484,7.252,93.489q4.321,31.174,8.641,62.352l.016-3.016c2.074,22.038,4.475,45.05,16.559,63.6,16.159,24.8,46.134,36.424,74.743,44.019a510.935,510.935,0,0,0,148,16.787c23.7-.8,47.7-3.329,69.778-11.995s42.249-24.077,52.664-45.385S724.122,460.961,709.039,442.66Z" transform="translate(471.681 368.943)" fill="none" stroke="#fff" stroke-miterlimit="10" stroke-width="2"/><path d="M731.359,454.846c-15.092-18.31-39.828-25.485-57.877-40.888A80.117,80.117,0,0,1,646.5,365.116c-2.567-17.545.8-35.382.585-53.111s-5.095-37.071-19.556-47.335c-23.31-16.542-56.3-1.043-83.91-8.451-24.682-6.622-40.792-30.182-63.2-42.474-17-9.327-36.808-11.738-56.068-13.979-14.608-1.7-29.717-3.358-43.769.981-17.449,5.391-31.178,19.7-39.094,36.157s-10.593,34.959-11.384,53.205c-1.461,33.726,3.185,67.386,7.82,100.823q4.662,33.622,9.322,67.246l.013-3.253c2.237,23.766,4.828,48.586,17.861,68.584,17.427,26.745,49.755,39.285,80.607,47.475a551.03,551.03,0,0,0,159.613,18.1c25.562-.859,51.442-3.592,75.252-12.936s45.563-25.965,56.8-48.945S747.627,474.584,731.359,454.846Z" transform="translate(463.476 361.205)" fill="none" stroke="#fff" stroke-miterlimit="10" stroke-width="2"/><path d="M306.891,147.7c-6.074-2.32-12.764,1.141-19.263,1.036-11.272-.182-22.785-10.862-32.422-5.016-5.375,3.257-6.979,10.286-7.22,16.57-1.181,31,48.084,26.64,62.4,9.719C316.064,163.275,315.118,150.842,306.891,147.7Z" transform="translate(366.024 294.523)" fill="none" stroke="#fff" stroke-miterlimit="10" stroke-width="2"/><path d="M384.5,184.33c-1.654-11.561-4.188-24.226-13.421-31.382-16.553-12.831-41.467.594-61.283-6.192-9.014-3.086-16.043-10.069-23.937-15.4s-18.266-9.088-26.813-4.878c-8.3,4.085-11.741,14.143-12.566,23.356s.105,18.759-2.946,27.492c-4.7,13.438-18.161,22.947-20.837,36.933-4.366,22.82,15.878,33.419,35.758,33.474,26.6.07,46.457-14.678,74.737-11.1,15.815,2,34.225,1.978,44.77-9.977C387.722,215.588,386.588,198.938,384.5,184.33Z" transform="translate(335.232 273.926)" fill="none" stroke="#fff" stroke-miterlimit="10" stroke-width="2"/><path d="M418.316,158.588c-18.789-24.13-49.983-4.707-81.86-36.332-18.259-18.113-54.879-7.721-73.537,9.977C254.728,140,250.1,150.7,245.675,161.09L211.6,241.171c-5.673,13.331-11.465,27.724-8.468,41.9,6.7,31.7,45.795,25.553,69.2,20.647,36.159-7.577,77.481-8.794,110.2-26.9C403,265.485,420.2,247.379,427.856,225.26S432.7,177.056,418.316,158.588Z" transform="translate(311.676 259.781)" fill="none" stroke="#fff" stroke-miterlimit="10" stroke-width="2"/><path d="M475.383,180.825c-11.587-25.483-35.132-43.979-60.773-55.212s-53.553-16.038-81.146-20.752c-16.284-2.782-34.711-5.077-47.821,4.972-13.57,10.4-15.745,29.522-21.961,45.453-9.3,23.827-28.789,41.9-46.662,60.195s-35.439,39.2-38.992,64.536c-3.566,25.418,8.435,42.989,31.535,52.392,10.516,4.282,21.668,5.323,32.46,8.411,12.6,3.605,23.939,11.3,37.585,11.051,26.629-.491,53.35-2.14,79.413-7.923,37.412-8.3,73.964-25.86,98.216-55.529S491.246,215.707,475.383,180.825Z" transform="translate(282.031 247.517)" fill="none" stroke="#fff" stroke-miterlimit="10" stroke-width="2"/><path d="M498.362,182.981c-12.755-28.048-38.672-48.406-66.9-60.771s-58.944-17.655-89.316-22.842c-17.922-3.062-38.205-5.588-52.636,5.474-14.936,11.449-17.331,32.495-24.171,50.029-10.234,26.228-31.689,46.117-51.363,66.256s-39,43.153-42.919,71.035c-3.923,27.976,9.287,47.317,34.711,57.669,11.576,4.712,23.849,5.859,35.73,9.257,13.872,3.969,26.348,12.439,41.368,12.163,29.31-.539,58.721-2.355,87.413-8.72,41.178-9.136,81.409-28.464,108.1-61.121S515.822,221.377,498.362,182.981Z" transform="translate(273.666 240.693)" fill="none" stroke="#fff" stroke-miterlimit="10" stroke-width="2"/><path d="M400.887,169.2a16.957,16.957,0,0,1-4.679-3.938c-1.934-2.639-2.236-6.089-2.6-9.342a122.817,122.817,0,0,0-4.6-22.2c-2.473-8.08-7.443-17.175-15.878-17.672-6.841-.405-12.733,5.577-14.614,12.166s-.718,13.616.458,20.367q2.674,15.377,5.355,30.753,1.337,7.685,2.677,15.374c1.312,7.526,5.3,15.6,11.966,19.8,5.3,3.334,11.9,4.035,18.13,3.38,12.75-1.343,26.32-10.882,25.453-23.674C421.779,182.765,410.52,175.429,400.887,169.2Z" transform="translate(496.44 263.645)" fill="none" stroke="#fff" stroke-miterlimit="10" stroke-width="2"/><path d="M381.542,152.385A6.179,6.179,0,0,1,379.816,151a6.467,6.467,0,0,1-.962-3.292,41.508,41.508,0,0,0-1.7-7.82c-.913-2.848-2.749-6.052-5.864-6.227-2.526-.142-4.7,1.965-5.4,4.287s-.265,4.8.169,7.176l1.978,10.836q.493,2.707.988,5.417a10.32,10.32,0,0,0,4.42,6.976,10.941,10.941,0,0,0,6.7,1.189c4.709-.473,9.719-3.833,9.4-8.341C389.259,157.166,385.1,154.582,381.542,152.385Z" transform="translate(505.971 284.623)" fill="none" stroke="#fff" stroke-miterlimit="10" stroke-width="2"/><path d="M465.047,227.68c-.977-12.006-9.287-22.09-18.106-30.293s-18.739-15.668-24.758-26.1c-7.23-12.534-7.883-27.687-12.222-41.493s-15.221-27.891-29.68-27.29c-9.035.375-17.026,6.7-21.589,14.5s-6.223,16.949-7.27,25.935c-3.277,28.094-.651,55.619,5.634,83.058,3.987,18.413,34.7,27.29,38.477,28.171,10.269,2.39,20.482,5.439,31.016,5.934s21.7-1.9,29.428-9.073A29.143,29.143,0,0,0,465.047,227.68Z" transform="translate(487.493 247.517)" fill="none" stroke="#fff" stroke-miterlimit="10" stroke-width="2"/><path d="M480.71,215.74c-9.456-14.772-23.008-26.618-32.155-41.581-7.673-12.549-11.964-26.815-17.69-40.365s-13.39-26.984-25.648-35.112-30.059-9.392-40.976.464c-6.751,6.1-9.837,15.184-12.249,23.954-12.939,47.07-20.664,132.426,36.72,154.713,15.891,6.17,33.428,6.4,50.452,5.5,6.814-.357,40.56-10.451,45.819-18.139C494.886,250.7,490.164,230.51,480.71,215.74Z" transform="translate(478.897 235.237)" fill="none" stroke="#fff" stroke-miterlimit="10" stroke-width="2"/><path d="M500.208,230.682c-11.224-17.534-27.31-31.6-38.17-49.359-9.11-14.9-14.2-31.833-21-47.92s-15.9-32.033-30.449-41.684-35.682-11.149-48.642.552c-8.013,7.237-11.677,18.027-14.54,28.438-15.359,55.875-24.533,157.2,43.591,183.662,18.866,7.327,39.681,7.592,59.892,6.532s51.418,7.706,62.845-9C525.489,284.721,511.434,248.216,500.208,230.682Z" transform="translate(471.387 225.498)" fill="none" stroke="#fff" stroke-miterlimit="10" stroke-width="2"/><path d="M1004.422,646.153c-7.975-32.436-28.78-60.374-52.712-83.676-17.565-17.1-38.061-33.842-43.964-57.641-8.97-36.157,19.468-74.189,9.357-110.044-8.426-29.89-40.2-46.31-69.848-55.549S785.037,323.36,763.6,300.9c-24.6-25.772-27.391-64.556-37.22-98.8a225.29,225.29,0,0,0-52.539-92.131c-12.757-13.5-27.588-25.634-45.112-31.8s-38.1-5.625-53.523,4.729c-10.358,6.957-17.609,17.62-27.041,25.788C518.3,134.547,473,130.911,435.331,119.03s-74.375-30.65-113.877-30.48c-15.451.068-31.741,3.542-43,14.126-13.71,12.895-16.965,33-23.278,50.723-13.129,36.862-41.226,66-64.059,97.778s-41.377,71.322-31.2,109.107c3.64,13.524,11.213,26.368,22.8,34.23,8.632,5.857,18.934,8.654,29.091,11.035a498.8,498.8,0,0,0,127,12.967c28.059-.751,56.524-3.842,83.934,2.212,47.99,10.6,86.87,60.657,74.5,110.035-5.172,20.645-15.18,39.953-18.993,60.891-8.416,46.2,15.51,93.956,51.374,124.269s81.965,45.718,127.863,55.637C746.539,790.8,840.56,791.6,927.852,765.532c19.2-5.732,38.569-13.068,53.223-26.73C1005.507,716.029,1012.4,678.586,1004.422,646.153Z" transform="translate(257.807 213.825)" fill="none" stroke="#fff" stroke-miterlimit="10" stroke-width="2"/><path d="M1113.341,728.59c-9.368-38.091-36.821-113.22-64.924-140.585-20.632-20.088-44.7-39.745-51.633-67.695-10.534-42.461,11.872-79.422,0-121.531-9.9-35.1-47.208-54.386-82.029-65.237s-73.072-18.651-98.253-45.035c-28.889-30.265-18.159-41.2-29.7-81.418a264.572,264.572,0,0,0-61.7-108.2c-14.982-15.856-32.4-30.105-52.979-37.344s-44.748-6.6-62.858,5.555c-12.165,8.168-20.68,20.691-31.754,30.285-35.066,30.372-88.267,26.1-132.509,12.148s-87.349-36-133.738-35.794c-18.148.079-37.279,4.157-50.5,16.59-16.1,15.142-19.922,38.748-27.339,59.568-15.418,43.291-48.415,77.512-75.228,114.83S109.6,348.492,121.551,392.866c4.276,15.883,13.169,30.968,26.78,40.2,10.139,6.876,22.237,10.161,34.166,12.958a585.8,585.8,0,0,0,149.15,15.228c32.955-.883,66.383-4.51,98.573,2.6,56.359,12.448,102.021,71.234,87.494,129.226-6.072,24.244-17.826,46.921-22.3,71.508-9.883,54.254,18.215,110.344,60.333,145.945S652,864.22,705.9,875.869c104.577,22.6,214.993,23.538,317.511-7.08,22.544-6.731,45.293-15.346,62.506-31.391C1114.616,810.652,1122.71,766.681,1113.341,728.59Z" transform="translate(211.545 193.214)" fill="none" stroke="#fff" stroke-miterlimit="10" stroke-width="2"/><path d="M1205.871,786.61c-10.5-42.687-41.259-126.877-72.755-157.543-23.117-22.511-50.09-44.54-57.86-75.858-11.8-47.585,13.3-89,0-136.189-11.09-39.338-52.9-60.948-91.923-73.107s-81.884-20.9-110.106-50.467c-32.372-33.916-20.347-46.172-33.283-91.239A296.457,296.457,0,0,0,770.8,80.959c-16.787-17.769-36.308-33.737-59.369-41.85s-50.145-7.4-70.439,6.225c-13.633,9.154-23.175,23.186-35.586,33.938-39.3,34.035-98.915,29.249-148.492,13.613s-97.885-40.339-149.87-40.113c-20.336.09-41.773,4.659-56.587,18.592-18.042,16.967-22.327,43.423-30.635,66.755-17.278,48.509-54.252,86.856-84.3,128.674-23.1,32.144-43.491,70.13-44.763,110.576-2.986,94.845,96.751,141.711,178.021,146.955,44.735,2.885,90.464-.024,133.591,12.2,59.678,16.923,109.733,75.147,93.507,139.926-6.8,27.17,1.183,27.757-3.838,55.312-11.075,60.8,41.778,106.772,88.972,146.666S688.888,938.6,749.291,951.653c117.191,25.326,240.928,26.377,355.809-7.931,25.264-7.546,50.759-17.2,70.047-35.178C1207.3,878.57,1216.37,829.294,1205.871,786.61Z" transform="translate(178.807 165.83)" fill="none" stroke="#fff" stroke-miterlimit="10" stroke-width="2"/><path d="M162.339,665.367c16.728-2.519,21.788-16.049,24.6-34.431,6.648-43.436,3.194-96.538-8.05-138.785-13.727-51.582-74.945-54.668-74.825,8.4C104.17,552.964,121.59,661,162.339,665.367Z" transform="translate(194.725 665.177)" fill="none" stroke="#fff" stroke-miterlimit="10" stroke-width="2"/><path d="M250.9,670.948a442.529,442.529,0,0,1-13.309-101.1c-.732-47.944,5.432-99.712-19.979-140.375-8.6-13.765-19.563.442-35.66-1.638-16.993-2.2-35.978-18.792-46.356-5.156S98.187,465.888,94.336,482.6c-17.863,77.519-20.605,243.559,77.652,279.917C250.975,791.741,265.892,730.53,250.9,670.948Z" transform="translate(171.6 622.346)" fill="none" stroke="#fff" stroke-miterlimit="10" stroke-width="2"/><path d="M304.011,769.054c-12.86-46.739-3.156-98.251-21.087-142.907-24.9-62-17.876-134.623-31.54-198.438-4.922-22.988-32.4-58.348-56.67-61.452-25.619-3.279-51.451,31.866-66.941,51.015s-22.835,42.987-28.464,66.54C73.2,593.1,37.7,845.192,186.088,897.545,305.367,939.632,327.2,853.345,304.011,769.054Z" transform="translate(161.029 561.263)" fill="none" stroke="#fff" stroke-miterlimit="10" stroke-width="2"/><path d="M356.091,829.912a679.916,679.916,0,0,1-27.8-171.884c-2.521-81.376,5.829-150.4-43.686-220-16.759-23.56-37.09-96.851-67.9-100.759-32.528-4.129-67.27,45.725-86.784,68.623s-33.307,71.287-40.275,99.55C57.317,636.582,18.788,919.452,207.424,983.452,359.062,1034.9,386.137,931.37,356.091,829.912Z" transform="translate(145.612 526.726)" fill="none" stroke="#fff" stroke-miterlimit="10" stroke-width="2"/><path d="M425.721,894.628A807.364,807.364,0,0,1,388,681.2c-3.921-100.967,3.262-255.231-62.122-341.943C303.746,309.906,276.383,329.1,236,324.019c-42.639-5.367-84.359,14.652-109.746,42.908s-39.706,26.4-48.618,61.406C36.283,590.76-15.42,1003.141,232.15,1083.963,431.162,1148.932,465.843,1020.714,425.721,894.628Z" transform="translate(121.863 509.407)" fill="none" stroke="#fff" stroke-miterlimit="10" stroke-width="2"/><path d="M490.271,958.046C462.3,877.065,427.156,780.726,423.132,697.8c-5.662-116.714,110.953-253.814,17.523-296.273-39.879-18.124-138.927-98.262-188.693-104.47-52.544-6.556-103.747,16.233-134.77,48.678S24.477,360.568,39.81,493.526c22.2,192.535-91.787,586.277,213.7,681.724C499.074,1251.978,540.714,1104.088,490.271,958.046Z" transform="translate(114.415 477.802)" fill="none" stroke="#fff" stroke-miterlimit="10" stroke-width="2"/><path d="M11.659,797.69c-8.205-86.438,24.59-173.332,12.428-259.3C-.238,366.461,70.16,414.335,118.347,363.175c54.456-57.814,129.609-99.789,207.43-83.928S494.835,331.182,522.318,405.7c28.131,76.268-37.382,201.045-35.047,282.3s58,154.612,131.712,188.89" transform="translate(83.132 453.919)" fill="none" stroke="#fff" stroke-miterlimit="10" stroke-width="2"/><path d="M696.428,898.74c-41.988-11.307-90.773-53.943-99.226-96.6s24.213-86.077,23.008-129.545c-2.784-100.419,1.008-275.054-112.815-305.685-102.735-27.647-267.765-68.369-358.77-21.532-21.219,10.921-34.58,59.882-58.339,62.114C25.027,413.622-19.09,255.836-32.342,208.28" transform="translate(32.342 373.461)" fill="none" stroke="#fff" stroke-miterlimit="10" stroke-width="2"/><path d="M-15.109,516.753C15.7,548.092,49.324,580.985,92.51,589.122s96-22.323,93.1-66.172c-1.108-16.774-9.824-31.919-16.117-47.506-24.158-59.831-10.746-133.052,33.051-180.435,24.789-26.822,58.015-45.6,79.159-75.383,28.513-40.155,31.277-95.049,62.6-133.048,15.624-18.956,37.583-32.6,50.182-53.683s9.638-55.087-13.78-62.506" transform="translate(52.856 90.273)" fill="none" stroke="#fff" stroke-miterlimit="10" stroke-width="2"/><path d="M-11.354,470.3l56.473,62.354C57.184,545.978,73.5,560.6,90.7,555.36c16.069-4.9,22.2-24.325,23.584-41.066,3.415-41.368-7.058-82.533-9.3-123.979s5.956-87.3,37.866-113.847c16.229-13.5,36.891-20.52,54.083-32.769C261.755,197.51,255.456,100.382,289.9,28.616c11-22.914,27-45.924,23.781-71.134" transform="translate(57.326 74.908)" fill="none" stroke="#fff" stroke-miterlimit="10" stroke-width="2"/><path d="M-5.878,406.114q15.065,17,30.134,34c5.781,6.521,14.4,13.668,22.149,9.679,4.149-2.138,6.24-6.847,7.524-11.333,10.926-38.181-14.595-78.7-7.767-117.822,10.937-62.672,93.11-84.692,123.87-140.381,19.56-35.41,15.245-78.452,16.527-118.885S199.429-25.1,235.722-42.962" transform="translate(63.845 74.379)" fill="none" stroke="#fff" stroke-miterlimit="10" stroke-width="2"/><path d="M-7.726,216.182c42.209,4.641,92.665,5.949,118.116-28.042,9.988-13.34,14.106-30.046,17.915-46.268Q149.057,53.522,166.7-35.518" transform="translate(61.645 83.241)" fill="none" stroke="#fff" stroke-miterlimit="10" stroke-width="2"/><path d="M-3.98,140.475a105.791,105.791,0,0,0,38.8,20.384c9.651,2.714,19.99,4.026,29.684,1.468,27.862-7.36,38.074-41.057,42.1-69.592a831.208,831.208,0,0,0,8.155-114.589" transform="translate(66.104 99.506)" fill="none" stroke="#fff" stroke-miterlimit="10" stroke-width="2"/><path d="M-3.911,73.753C6.78,78.769,13.768,89.1,22.2,97.37s20.936,14.945,31.724,10.142c7.82-3.483,12.091-11.855,15.41-19.747A298.973,298.973,0,0,0,91.444-.948c.484-5.347-6.354-12.494-7.772-7.318" transform="translate(66.187 113.547)" fill="none" stroke="#fff" stroke-miterlimit="10" stroke-width="2"/><path d="M1.325,31.2c2.412,19.2,32.633,22.728,45.28,8.08S57.592,2.424,51.562-15.967" transform="translate(72.42 106.514)" fill="none" stroke="#fff" stroke-miterlimit="10" stroke-width="2"/><path d="M202.076,16.065c-4.4,27.8-8.1,58.839,8.159,81.81,18.8,26.55,55.91,30.951,88.436,31.4,29.227.405,59.667-.732,85.569-14.279,16.481-8.621,30.164-21.812,46.329-31.007,34.613-19.69,76.68-19.245,116.488-18.266,24.324.6,50.1,1.632,70.393,15.055,30.3,20.036,38.733,60.734,62.812,87.928,3.005,3.393,6.442,6.687,10.788,7.977,9.94,2.95,19.6-5.581,24.971-14.448,36.048-59.47-19.144-135.735-6.764-204.166" transform="translate(306.919 75.606)" fill="none" stroke="#fff" stroke-miterlimit="10" stroke-width="2"/><path d="M231.635-16.089c-17.469,10.534-15.116,39.395.793,52.165s39.02,12.238,58.361,5.759A114.765,114.765,0,0,0,350.846-5.314" transform="translate(332.123 106.369)" fill="none" stroke="#fff" stroke-miterlimit="10" stroke-width="2"/><path d="M405.925,10.2a95.646,95.646,0,0,0,24.982,70.31c1.59,1.715,3.448,3.472,5.776,3.689,3.325.307,6.024-2.613,7.743-5.476C458.033,56.069,445.471,27.3,432.92,4.038q-9.289-17.213-18.577-34.422" transform="translate(553.835 89.352)" fill="none" stroke="#fff" stroke-miterlimit="10" stroke-width="2"/><path d="M467.071-12.981C486.294,43.258,593.239,10.954,617.182,65.35c7.264,16.5,4.569,38.221,18.248,49.959,8.205,7.04,19.854,8.013,29.8,12.258,32.208,13.754,39.48,56.819,65.666,80.075,15.289,13.578,35.883,19.341,53.161,30.28,30.226,19.133,48.934,55.152,47.205,90.882s-23.823,69.778-55.753,85.908c-14.194,7.169-29.378,10.775-45.026,12.065-37.789,3.115-65.752,36.519-63.627,74.378,1.689,30.116,2.622,60.758,17.817,85.794,24.16,39.809,76.32,52.121,122.889,52.252,23.816.068,51.972-.1,65.785,19.306,17.637,24.776-3.008,58.637-.953,88.981,2.239,33.055,32.271,58.326,63.879,68.258s65.482,8.534,98.433,11.99a334.816,334.816,0,0,1,195.906,91.323" transform="translate(626.85 110.069)" fill="none" stroke="#fff" stroke-miterlimit="10" stroke-width="2"/><path d="M1104.577,867.955,959.7,805.99c-39.189-16.761-84.1-40.86-88.644-83.24-1.647-15.351,2.62-30.942.453-46.231-4.661-32.865-41.561-42.065-68.358-50-14.978-4.438-31.161-12.111-46.316-15.074-24.522-4.795-47.03-1.207-67.463-19.37-14.4-12.8-22.371-33.459-17.355-52.057,9.292-34.449,58.033-32.291,83.155-51.547,30.276-23.205,49.232-60.138,56.186-97.138,6.2-32.988,4.282-68.194-10.087-98.527-10.621-22.423-27.446-41.219-44.034-59.669Q635.917,98.216,514.6-36.7" transform="translate(683.429 81.832)" fill="none" stroke="#fff" stroke-miterlimit="10" stroke-width="2"/><path d="M621.513,597.214a309.983,309.983,0,0,1-24.9-96.059c-1.106-11.9.8-27.3,12.323-30.473,12.919-3.557,22.333,11.887,26.8,24.522q20.41,57.663,40.82,115.328" transform="translate(780.728 685.21)" fill="none" stroke="#fff" stroke-miterlimit="10" stroke-width="2"/><path d="M596.462,590.677a150.3,150.3,0,0,1-9.955-113.742c2.648-8.343,6.205-16.706,12.531-22.754,14.72-14.078,39.995-10.56,55.895,2.169s24.695,32.1,32.933,50.728q13.8,31.217,27.6,62.429c9.647,21.814,25.588,47.488,49.28,44.73" transform="translate(760.904 655.376)" fill="none" stroke="#fff" stroke-miterlimit="10" stroke-width="2"/><path d="M629.47,567.823c-5.042-24.364-18.426-46.053-31.577-67.173-4.6-7.4-9.43-15.024-16.685-19.852-15.738-10.468-38.886-3.349-49.781,12.1s-11.2,36.429-5.406,54.419S542.973,581,553.964,596.382" transform="translate(692.569 691.975)" fill="none" stroke="#fff" stroke-miterlimit="10" stroke-width="2"/><path d="M553.294,545.111a62.844,62.844,0,0,1-13.077-39.8c.136-5.261,1.7-11.491,6.674-13.213,6.615-2.291,12.3,5.187,14.9,11.686a130.6,130.6,0,0,1,9.128,41.5" transform="translate(713.9 710.822)" fill="none" stroke="#fff" stroke-miterlimit="10" stroke-width="2"/><path d="M581.539,554.115c-10.735-12.827-13.046-30.443-18.737-46.17s-18.391-31.866-35.084-30.832c-8.168.506-15.462,5.121-22.075,9.945A230.2,230.2,0,0,0,427.3,588.835" transform="translate(579.5 693.426)" fill="none" stroke="#fff" stroke-miterlimit="10" stroke-width="2"/><path d="M461.511,540.278a60.808,60.808,0,0,1,22.682-45.024c2.495-1.978,5.662-3.844,8.692-2.869,4.249,1.367,5,6.961,4.983,11.425q-.069,16.08-.136,32.158" transform="translate(620.231 711.345)" fill="none" stroke="#fff" stroke-miterlimit="10" stroke-width="2"/><path d="M422.4,639.841c-28.887-12.75-58.169-25.737-82.618-45.718-29.487-24.1-50.973-58.556-56.819-96.185-4.37-28.12,2.377-61.158,26.771-75.81a13.289,13.289,0,0,1,6.795-2.342c6.457.077,9.923,7.69,10.634,14.108,2.177,19.62-6.354,39.088-5.29,58.8,1.665,30.817,25.691,55.137,48.171,76.281,30.883,29.049,67.456,60.166,109.648,56.009,7.966-.784,15.968-2.852,23.873-1.6,19.591,3.108,30.12,24.169,37.5,42.582,10.869-.107,13.646-14.908,13.771-25.777a217.965,217.965,0,0,1,8.884-59.115c1.327-4.5,3.36-9.55,7.82-11.016,3.962-1.3,8.275.872,11.311,3.73,16.13,15.193,6.856,42.2-5.158,60.817s-26.452,40.93-17.278,61.1" transform="translate(406.207 625.239)" fill="none" stroke="#fff" stroke-miterlimit="10" stroke-width="2"/><path d="M772.8,760.526c-30.462-9.535-51.738-37.82-63.031-67.675s-14.575-62.033-21.569-93.176c-20.13-89.654-71.186-171.52-85.115-261.741-2.254-14.6,12.065-26.5,25.805-21.085a43.837,43.837,0,0,1,14.152,9.064c11.152,10.72,17.019,25.656,22.566,40.1,5.945,15.484,11.918,31.064,15.1,47.341,5.071,25.921,2.9,52.734,6.424,78.91,8.854,65.818,52.025,120.869,86.329,177.732S834.522,797.489,808,858.376" transform="translate(788.48 501.115)" fill="none" stroke="#fff" stroke-miterlimit="10" stroke-width="2"/><path d="M781.3-14.306a173.3,173.3,0,0,0-48.684,45.992c-6.554,9.208-12.251,21.692-6.269,31.281,9.038,14.49,31.456,5.908,44.917-4.6A547.292,547.292,0,0,0,843.216-9.113" transform="translate(932.494 108.492)" fill="none" stroke="#fff" stroke-miterlimit="10" stroke-width="2"/><path d="M785.639-24.875C768.718-8.066,748.411,4.963,730.944,21.2s-32.545,37.11-34.195,60.9a62.461,62.461,0,0,0,85.636,62.256c12.3-4.95,22.655-13.64,32.784-22.189Q871.236,74.848,927.3,27.526c3.2-2.7,4.974-9.658.8-9.355" transform="translate(900.096 95.91)" fill="none" stroke="#fff" stroke-miterlimit="10" stroke-width="2"/><path d="M747.109-31.842c1.954,18.986-10.917,36.249-24.9,49.236s-30.25,24.53-38.823,41.583c-7.794,15.5-8.17,33.577-7.794,50.927.572,26.254,2.843,53.613,16.365,76.128,15.337,25.54,42.7,40.958,68.847,55.24,9.178,5.012,18.605,10.111,28.955,11.6,19.326,2.788,37.98-7.329,54.46-17.8A674.8,674.8,0,0,0,1003.593,94" transform="translate(874.961 87.616)" fill="none" stroke="#fff" stroke-miterlimit="10" stroke-width="2"/><path d="M840.828,130.7a139.222,139.222,0,0,0-97.721,28.09c-9.241,7.147-18.2,16.949-17.8,28.627.432,12.6,12.19,22.478,24.524,25.1s25.091-.3,37.362-3.2l88.753-21.035" transform="translate(934.239 280.34)" fill="none" stroke="#fff" stroke-miterlimit="10" stroke-width="2"/><path d="M927.973,253.762a655.777,655.777,0,0,1-134.634,26.355c-18.086,1.6-36.63,2.414-54.094-2.55s-33.9-16.632-40.361-33.6c-10.913-28.655,10.724-61.056,38.315-74.426s59.435-13.366,89.958-16.279A444.19,444.19,0,0,0,973.4,113.249" transform="translate(899.37 260.335)" fill="none" stroke="#fff" stroke-miterlimit="10" stroke-width="2"/><path d="M1060.438,521.612C1008.4,533.7,957.4,551.844,904.153,556.14s-111.229-7.691-147.535-46.879-39.885-109.748,2.39-142.41c10.588-8.179,24.37-15.2,26.992-28.322,3.459-17.313-14.485-30.335-28.587-40.954-46.831-35.263-71.519-91.877-94.253-145.914C648.4,116.579,633.429,80.6,631.514,42.587s11.82-79.116,43.71-99.892" transform="translate(822.396 57.305)" fill="none" stroke="#fff" stroke-miterlimit="10" stroke-width="2"/><path d="M557.067-51.86c3.962,78.975,148.7,140.7,174.569,215.423,11.377,32.856,12.082,70.03,31.487,98.882,9.853,14.647,24.252,26.635,30,43.326,7.2,20.918-.876,43.559-5.594,65.171-21.512,98.569,38.33,208.409,132.813,243.782,87.014,32.574,188.763,6.135,273.8,43.572" transform="translate(733.982 63.787)" fill="none" stroke="#fff" stroke-miterlimit="10" stroke-width="2"/><path d="M868.964,364.6c-30.854.269-62.324.195-91.658-9.371-23.911-7.8-46.5-23.028-59.244-44.27a11.116,11.116,0,0,1,9.774-16.914c50.982,1.535,96.431,56.666,149.908,53.407" transform="translate(923.693 475.549)" fill="none" stroke="#fff" stroke-miterlimit="10" stroke-width="2"/><path d="M950.6,511.817c-38.3-7.618-77.278-15.475-111.586-34.138s-63.859-50.139-70.354-88.65c-2.208-13.09-1.726-26.6-4.9-39.489-7.279-29.582-46.371-41.138-70.65-51.974-22.989-10.262-77.195-37-49.135-70.406,16.557-19.709,37.053-3.57,50.478,10.86,21.19,22.778,37.143,50.864,62.376,69.059,21.289,15.353,47.33,22.29,72.724,28.931L1091.97,404.63" transform="translate(828.07 385.043)" fill="none" stroke="#fff" stroke-miterlimit="10" stroke-width="2"/></g></g></g></g><circle cx="127" cy="127" r="127" transform="translate(1331 433)" fill="rgba(255,0,0,0.13)"/><circle cx="95" cy="95" r="95" transform="translate(1363 465)" fill="rgba(218,26,26,0.45)"/><g transform="translate(1444 542)" fill="red" stroke="#fff" stroke-width="7"><circle cx="18" cy="18" r="18" stroke="none"/><circle cx="18" cy="18" r="14.5" fill="none"/></g></g></svg>